# xmcd
#
# Track frame offsets:
#       182
#       14370
#       26220
#       48457
#       61682
#       72032
#       81695
#       99307
#       109532
#       127495
#       145432
#       158595
#       183182
#
# Disc length: 2648 seconds
#
# Revision: 1
# Processed by: cddbd v1.4PL0 Copyright (c) Steve Scherf et al.
# Submitted via: MusiCat 1.1
#
DISCID=b20a560d
DTITLE=Vari - Cocktail italiano vol. 2
DYEAR=1900
DGENRE=
TTITLE0=E se domani-Mina
TTITLE1=Un'ora fa'-Fausto Leali
TTITLE2=Senza luce-Dik Dik
TTITLE3=Mita Mita-Le Orme
TTITLE4=Se tu non fossi bella come lei-Fred Bongusto
TTITLE5=Profumo di mare-Little Tony
TTITLE6=Un uomo molte cose non le sa'-Nicola di Bari
TTITLE7=Non esiste l'amore-Adriano Celentano
TTITLE8=Lei non sapeva far l'amore-Collage
TTITLE9=Una vecchia canzone italiana-Wilma Goich
TTITLE10=Fortissimo-Rita Pavone
TTITLE11=Quella carezza della sera-New Trolls
TTITLE12=Penso sorrido e canto-Ricchi e poveri
EXTD=0\n\n\n
EXTT0=
EXTT1=
EXTT2=
EXTT3=
EXTT4=
EXTT5=
EXTT6=
EXTT7=
EXTT8=
EXTT9=
EXTT10=
EXTT11=
EXTT12=
PLAYORDER=
